<mxfile host="app.diagrams.net" modified="2024-04-07T15:23:57.855Z" agent="Mozilla/5.0 (Macintosh; Intel Mac OS X 10_15_7) AppleWebKit/537.36 (KHTML, like Gecko) Chrome/123.0.0.0 Safari/537.36" etag="1X6dwlNTOKXIcqKYrtGk" version="24.0.7" type="github">
  <diagram name="第 1 页" id="Gs_7SkS8K4M7Ottqki5-">
    <mxGraphModel dx="1397" dy="827" grid="0" gridSize="10" guides="1" tooltips="1" connect="1" arrows="1" fold="1" page="1" pageScale="1" pageWidth="1700" pageHeight="1100" math="0" shadow="0">
      <root>
        <mxCell id="0" />
        <mxCell id="1" parent="0" />
        <mxCell id="dbtZBYnq_qSpKCE7O5eB-31" value="" style="rounded=1;whiteSpace=wrap;html=1;fillColor=#dae8fc;strokeColor=#6c8ebf;" vertex="1" parent="1">
          <mxGeometry x="35" y="330" width="170" height="340" as="geometry" />
        </mxCell>
        <mxCell id="dbtZBYnq_qSpKCE7O5eB-29" value="" style="rounded=1;whiteSpace=wrap;html=1;fillColor=#dae8fc;strokeColor=#6c8ebf;" vertex="1" parent="1">
          <mxGeometry x="375" y="249" width="176" height="613" as="geometry" />
        </mxCell>
        <mxCell id="dbtZBYnq_qSpKCE7O5eB-5" value="" style="rounded=0;whiteSpace=wrap;html=1;" vertex="1" parent="1">
          <mxGeometry x="50" y="470" width="140" height="60" as="geometry" />
        </mxCell>
        <mxCell id="dbtZBYnq_qSpKCE7O5eB-4" value="" style="rounded=0;whiteSpace=wrap;html=1;" vertex="1" parent="1">
          <mxGeometry x="50" y="370" width="140" height="65" as="geometry" />
        </mxCell>
        <mxCell id="dbtZBYnq_qSpKCE7O5eB-2" value="" style="image;aspect=fixed;perimeter=ellipsePerimeter;html=1;align=center;shadow=0;dashed=0;spacingTop=3;image=img/lib/active_directory/web_server.svg;" vertex="1" parent="1">
          <mxGeometry x="60" y="380" width="40" height="50" as="geometry" />
        </mxCell>
        <mxCell id="dbtZBYnq_qSpKCE7O5eB-3" value="" style="image;aspect=fixed;perimeter=ellipsePerimeter;html=1;align=center;shadow=0;dashed=0;spacingTop=3;image=img/lib/active_directory/cell_phone.svg;" vertex="1" parent="1">
          <mxGeometry x="66" y="480" width="21" height="50" as="geometry" />
        </mxCell>
        <mxCell id="dbtZBYnq_qSpKCE7O5eB-6" value="web" style="text;html=1;align=center;verticalAlign=middle;whiteSpace=wrap;rounded=0;" vertex="1" parent="1">
          <mxGeometry x="110" y="390" width="60" height="30" as="geometry" />
        </mxCell>
        <mxCell id="dbtZBYnq_qSpKCE7O5eB-7" value="app&amp;nbsp;" style="text;html=1;align=center;verticalAlign=middle;whiteSpace=wrap;rounded=0;" vertex="1" parent="1">
          <mxGeometry x="110" y="490" width="60" height="30" as="geometry" />
        </mxCell>
        <mxCell id="dbtZBYnq_qSpKCE7O5eB-9" value="" style="rounded=0;whiteSpace=wrap;html=1;" vertex="1" parent="1">
          <mxGeometry x="50" y="570" width="140" height="60" as="geometry" />
        </mxCell>
        <mxCell id="dbtZBYnq_qSpKCE7O5eB-10" value="" style="image;aspect=fixed;perimeter=ellipsePerimeter;html=1;align=center;shadow=0;dashed=0;spacingTop=3;image=img/lib/active_directory/cell_phone.svg;" vertex="1" parent="1">
          <mxGeometry x="66" y="580" width="21" height="50" as="geometry" />
        </mxCell>
        <mxCell id="dbtZBYnq_qSpKCE7O5eB-11" value="微信小程序" style="text;html=1;align=center;verticalAlign=middle;whiteSpace=wrap;rounded=0;" vertex="1" parent="1">
          <mxGeometry x="110" y="590" width="70" height="30" as="geometry" />
        </mxCell>
        <mxCell id="dbtZBYnq_qSpKCE7O5eB-12" value="埋点数据" style="text;html=1;align=center;verticalAlign=middle;whiteSpace=wrap;rounded=0;" vertex="1" parent="1">
          <mxGeometry x="84" y="300" width="60" height="30" as="geometry" />
        </mxCell>
        <mxCell id="dbtZBYnq_qSpKCE7O5eB-15" value="_td_first_use&lt;div&gt;首次使用事件&lt;/div&gt;" style="rounded=1;whiteSpace=wrap;html=1;arcSize=40;fontColor=#000000;fillColor=#ffffc0;strokeColor=#ff0000;" vertex="1" parent="1">
          <mxGeometry x="400" y="390" width="120" height="40" as="geometry" />
        </mxCell>
        <mxCell id="dbtZBYnq_qSpKCE7O5eB-16" value="" style="edgeStyle=orthogonalEdgeStyle;html=1;verticalAlign=bottom;endArrow=open;endSize=8;strokeColor=#ff0000;rounded=0;" edge="1" source="dbtZBYnq_qSpKCE7O5eB-15" parent="1">
          <mxGeometry relative="1" as="geometry">
            <mxPoint x="460" y="490" as="targetPoint" />
          </mxGeometry>
        </mxCell>
        <mxCell id="dbtZBYnq_qSpKCE7O5eB-19" value="&lt;div&gt;app_start&lt;/div&gt;&lt;div&gt;应用启动事件&lt;/div&gt;" style="rounded=1;whiteSpace=wrap;html=1;arcSize=40;fontColor=#000000;fillColor=#ffffc0;strokeColor=#ff0000;" vertex="1" parent="1">
          <mxGeometry x="400" y="290" width="120" height="40" as="geometry" />
        </mxCell>
        <mxCell id="dbtZBYnq_qSpKCE7O5eB-20" value="" style="edgeStyle=orthogonalEdgeStyle;html=1;verticalAlign=bottom;endArrow=open;endSize=8;strokeColor=#ff0000;rounded=0;" edge="1" parent="1" source="dbtZBYnq_qSpKCE7O5eB-19">
          <mxGeometry relative="1" as="geometry">
            <mxPoint x="460" y="390" as="targetPoint" />
          </mxGeometry>
        </mxCell>
        <mxCell id="dbtZBYnq_qSpKCE7O5eB-21" value="&lt;div&gt;_td_account&lt;/div&gt;&lt;div&gt;用户注册事件&lt;/div&gt;" style="rounded=1;whiteSpace=wrap;html=1;arcSize=40;fontColor=#000000;fillColor=#ffffc0;strokeColor=#ff0000;" vertex="1" parent="1">
          <mxGeometry x="400" y="490" width="120" height="40" as="geometry" />
        </mxCell>
        <mxCell id="dbtZBYnq_qSpKCE7O5eB-22" value="" style="edgeStyle=orthogonalEdgeStyle;html=1;verticalAlign=bottom;endArrow=open;endSize=8;strokeColor=#ff0000;rounded=0;" edge="1" parent="1" source="dbtZBYnq_qSpKCE7O5eB-21">
          <mxGeometry relative="1" as="geometry">
            <mxPoint x="460" y="590" as="targetPoint" />
          </mxGeometry>
        </mxCell>
        <mxCell id="dbtZBYnq_qSpKCE7O5eB-25" value="&lt;div&gt;page_view&lt;/div&gt;&lt;div&gt;页面浏览事件&lt;/div&gt;" style="rounded=1;whiteSpace=wrap;html=1;arcSize=40;fontColor=#000000;fillColor=#ffffc0;strokeColor=#ff0000;" vertex="1" parent="1">
          <mxGeometry x="400" y="690" width="120" height="40" as="geometry" />
        </mxCell>
        <mxCell id="dbtZBYnq_qSpKCE7O5eB-26" value="" style="edgeStyle=orthogonalEdgeStyle;html=1;verticalAlign=bottom;endArrow=open;endSize=8;strokeColor=#ff0000;rounded=0;" edge="1" parent="1" source="dbtZBYnq_qSpKCE7O5eB-25">
          <mxGeometry relative="1" as="geometry">
            <mxPoint x="460" y="790" as="targetPoint" />
          </mxGeometry>
        </mxCell>
        <mxCell id="dbtZBYnq_qSpKCE7O5eB-27" value="&lt;div&gt;app_end&lt;/div&gt;&lt;div&gt;退出事件&lt;/div&gt;" style="rounded=1;whiteSpace=wrap;html=1;arcSize=40;fontColor=#000000;fillColor=#ffffc0;strokeColor=#ff0000;" vertex="1" parent="1">
          <mxGeometry x="400" y="790" width="120" height="40" as="geometry" />
        </mxCell>
        <mxCell id="dbtZBYnq_qSpKCE7O5eB-30" value="完整的session会话" style="text;html=1;align=center;verticalAlign=middle;whiteSpace=wrap;rounded=0;" vertex="1" parent="1">
          <mxGeometry x="392.5" y="219" width="135" height="30" as="geometry" />
        </mxCell>
        <mxCell id="dbtZBYnq_qSpKCE7O5eB-32" value="" style="edgeStyle=orthogonalEdgeStyle;html=1;verticalAlign=bottom;endArrow=open;endSize=8;strokeColor=#ff0000;rounded=0;" edge="1" parent="1">
          <mxGeometry relative="1" as="geometry">
            <mxPoint x="370" y="490" as="targetPoint" />
            <mxPoint x="210" y="490" as="sourcePoint" />
          </mxGeometry>
        </mxCell>
        <mxCell id="dbtZBYnq_qSpKCE7O5eB-33" value="event-package上报" style="text;html=1;align=center;verticalAlign=middle;whiteSpace=wrap;rounded=0;" vertex="1" parent="1">
          <mxGeometry x="230" y="470" width="110" height="20" as="geometry" />
        </mxCell>
        <mxCell id="dbtZBYnq_qSpKCE7O5eB-34" value="&lt;font style=&quot;font-size: 16px;&quot;&gt;user data&lt;/font&gt;" style="rounded=1;whiteSpace=wrap;html=1;fillColor=#dae8fc;strokeColor=#6c8ebf;" vertex="1" parent="1">
          <mxGeometry x="690" y="330" width="150" height="80" as="geometry" />
        </mxCell>
        <mxCell id="dbtZBYnq_qSpKCE7O5eB-36" value="&lt;font style=&quot;font-size: 14px;&quot;&gt;event data&lt;/font&gt;" style="rounded=1;whiteSpace=wrap;html=1;fillColor=#dae8fc;strokeColor=#6c8ebf;" vertex="1" parent="1">
          <mxGeometry x="690" y="550" width="150" height="80" as="geometry" />
        </mxCell>
        <mxCell id="dbtZBYnq_qSpKCE7O5eB-37" value="" style="endArrow=classic;startArrow=classic;html=1;rounded=0;" edge="1" parent="1">
          <mxGeometry width="50" height="50" relative="1" as="geometry">
            <mxPoint x="760" y="550" as="sourcePoint" />
            <mxPoint x="760" y="410" as="targetPoint" />
          </mxGeometry>
        </mxCell>
        <mxCell id="dbtZBYnq_qSpKCE7O5eB-38" value="deviceId关联" style="text;html=1;align=center;verticalAlign=middle;whiteSpace=wrap;rounded=0;" vertex="1" parent="1">
          <mxGeometry x="770" y="475" width="90" height="30" as="geometry" />
        </mxCell>
        <mxCell id="dbtZBYnq_qSpKCE7O5eB-40" value="" style="endArrow=classic;html=1;rounded=0;entryX=0;entryY=0.5;entryDx=0;entryDy=0;" edge="1" parent="1" target="dbtZBYnq_qSpKCE7O5eB-34">
          <mxGeometry width="50" height="50" relative="1" as="geometry">
            <mxPoint x="550" y="480" as="sourcePoint" />
            <mxPoint x="600" y="450" as="targetPoint" />
            <Array as="points">
              <mxPoint x="630" y="480" />
              <mxPoint x="630" y="370" />
            </Array>
          </mxGeometry>
        </mxCell>
        <mxCell id="dbtZBYnq_qSpKCE7O5eB-41" value="" style="endArrow=classic;html=1;rounded=0;entryX=0;entryY=0.5;entryDx=0;entryDy=0;" edge="1" parent="1" target="dbtZBYnq_qSpKCE7O5eB-36">
          <mxGeometry width="50" height="50" relative="1" as="geometry">
            <mxPoint x="630" y="480" as="sourcePoint" />
            <mxPoint x="680" y="430" as="targetPoint" />
            <Array as="points">
              <mxPoint x="630" y="590" />
            </Array>
          </mxGeometry>
        </mxCell>
        <mxCell id="dbtZBYnq_qSpKCE7O5eB-42" value="用户属性" style="text;html=1;align=center;verticalAlign=middle;whiteSpace=wrap;rounded=0;" vertex="1" parent="1">
          <mxGeometry x="575" y="400" width="60" height="30" as="geometry" />
        </mxCell>
        <mxCell id="dbtZBYnq_qSpKCE7O5eB-43" value="用户行为" style="text;html=1;align=center;verticalAlign=middle;whiteSpace=wrap;rounded=0;" vertex="1" parent="1">
          <mxGeometry x="575" y="530" width="60" height="30" as="geometry" />
        </mxCell>
        <mxCell id="dbtZBYnq_qSpKCE7O5eB-57" value="" style="verticalLabelPosition=bottom;shadow=0;dashed=0;align=center;html=1;verticalAlign=top;strokeWidth=1;shape=mxgraph.mockup.graphics.lineChart;strokeColor=none;strokeColor2=#666666;strokeColor3=#008cff;strokeColor4=#dddddd;" vertex="1" parent="1">
          <mxGeometry x="1030" y="425" width="170" height="110" as="geometry" />
        </mxCell>
        <mxCell id="dbtZBYnq_qSpKCE7O5eB-58" value="指标分析&amp;amp;人群圈选" style="text;html=1;align=center;verticalAlign=middle;whiteSpace=wrap;rounded=0;" vertex="1" parent="1">
          <mxGeometry x="1030" y="548" width="117" height="30" as="geometry" />
        </mxCell>
        <mxCell id="dbtZBYnq_qSpKCE7O5eB-59" value="" style="endArrow=classic;html=1;rounded=0;" edge="1" parent="1">
          <mxGeometry width="50" height="50" relative="1" as="geometry">
            <mxPoint x="994" y="484" as="sourcePoint" />
            <mxPoint x="897" y="484" as="targetPoint" />
          </mxGeometry>
        </mxCell>
        <mxCell id="dbtZBYnq_qSpKCE7O5eB-60" value="filter" style="text;html=1;align=center;verticalAlign=middle;whiteSpace=wrap;rounded=0;" vertex="1" parent="1">
          <mxGeometry x="915" y="450" width="60" height="30" as="geometry" />
        </mxCell>
        <mxCell id="dbtZBYnq_qSpKCE7O5eB-63" value="&lt;div&gt;custom_event&lt;/div&gt;&lt;div&gt;自定义事件&lt;/div&gt;" style="rounded=1;whiteSpace=wrap;html=1;arcSize=40;fontColor=#000000;fillColor=#ffffc0;strokeColor=#ff0000;" vertex="1" parent="1">
          <mxGeometry x="400" y="590" width="120" height="40" as="geometry" />
        </mxCell>
        <mxCell id="dbtZBYnq_qSpKCE7O5eB-64" value="" style="edgeStyle=orthogonalEdgeStyle;html=1;verticalAlign=bottom;endArrow=open;endSize=8;strokeColor=#ff0000;rounded=0;" edge="1" parent="1" source="dbtZBYnq_qSpKCE7O5eB-63">
          <mxGeometry relative="1" as="geometry">
            <mxPoint x="460" y="690" as="targetPoint" />
          </mxGeometry>
        </mxCell>
      </root>
    </mxGraphModel>
  </diagram>
</mxfile>
